<?xml version="1.0" encoding="utf-8"?>
<svg width="48px" height="48px" viewBox="0 0 48 48" version="1.1" xmlns:xlink="http://www.w3.org/1999/xlink" xmlns="http://www.w3.org/2000/svg">
  <defs>
    <path d="M48 0L48 0L48 48L0 48L0 0L48 0Z" id="path_1" />
    <clipPath id="clip_1">
      <use xlink:href="#path_1" clip-rule="evenodd" fill-rule="evenodd" />
    </clipPath>
  </defs>
  <g id="Facebook Nuevo">
    <path d="M48 0L48 0L48 48L0 48L0 0L48 0Z" id="Facebook-Nuevo" fill="none" stroke="none" />
    <path d="M24 5C13.5066 5 5 13.5066 5 24C5 34.4934 13.5066 43 24 43C34.4934 43 43 34.4934 43 24C43 13.5066 34.4934 5 24 5L24 5Z" id="Forma" fill="#039BE5" stroke="none" clip-path="url(#clip_1)" />
    <path d="M26.572 29.036L31.489 29.036L32.261 24.041L26.571 24.041L26.571 21.311C26.571 19.236 27.249 17.396 29.19 17.396L32.309 17.396L32.309 13.037C31.761 12.963 30.602 12.801 28.412 12.801C23.839 12.801 21.158 15.216 21.158 20.718L21.158 24.041L16.457 24.041L16.457 29.036L21.158 29.036L21.158 42.765C22.089 42.905 23.032 43 24 43C24.875 43 25.729 42.92 26.572 42.806L26.572 29.036L26.572 29.036Z" id="Forma" fill="#FFFFFF" stroke="none" clip-path="url(#clip_1)" />
  </g>
</svg>